<svg xmlns="http://www.w3.org/2000/svg" viewBox="0 0 4.57 9.7"><defs><style>.cls-1{fill:#fff;fill-rule:evenodd;}</style></defs><title>info</title><g id="Calque_2" data-name="Calque 2"><g id="Page_1" data-name="Page 1"><path class="cls-1" d="M.93,8.39c.09-.57.18-1.23.29-1.88S1.47,5,1.59,4.29c0-.1,0-.28-.08-.29a.4.4,0,0,0-.34.07c-.24.32-.44.66-.66,1a2.11,2.11,0,0,1-.2.3.22.22,0,0,1-.19.05A.21.21,0,0,1,0,5.24a1.41,1.41,0,0,1,.13-.41A4.06,4.06,0,0,1,1.58,3.11a3.51,3.51,0,0,1,1-.38.81.81,0,0,1,1,.67,3,3,0,0,1,0,1.15c-.08.64-.17,1.28-.27,1.92-.06.38-.14.76-.19,1.15,0,.2-.11.46.12.55s.35-.14.45-.3c.21-.31.39-.64.6-1,0-.08.16-.11.24-.17,0,.1.14.21.12.29a3.9,3.9,0,0,1-.36.8A4.24,4.24,0,0,1,2.39,9.55a1.91,1.91,0,0,1-.66.15A.65.65,0,0,1,1,9.11C1,8.91,1,8.69.93,8.39Z"/><path class="cls-1" d="M3.85,1a1.18,1.18,0,0,1-1.2,1.14.94.94,0,0,1-.9-1A1.17,1.17,0,0,1,2.94,0,.93.93,0,0,1,3.85,1Z"/></g></g></svg>